<?xml version="1.0" encoding="utf-8"?>
<svg viewBox="0 0 64 64" fill="#333333" style="--darkreader-inline-fill: #262a2b;" xmlns="http://www.w3.org/2000/svg">
  <path d="M 32.038 0.037 C 14.364 0.037 0.037 14.364 0.037 32.037 C 0.037 49.71 14.364 64.037 32.038 64.037 C 49.71 64.037 64.037 49.71 64.037 32.037 C 64.037 14.364 49.71 0.037 32.038 0.037 Z M 23.423 46.807 L 17.268 46.807 L 17.268 24.653 L 23.423 24.653 L 23.423 46.807 Z M 20.326 22.19 L 20.292 22.19 C 18.456 22.19 17.268 20.823 17.268 19.113 C 17.268 17.366 18.493 16.037 20.361 16.037 C 22.233 16.037 23.387 17.366 23.423 19.113 C 23.423 20.821 22.233 22.19 20.326 22.19 Z M 46.806 46.807 L 40.652 46.807 L 40.652 35.729 C 40.652 32.037 38.873 30.806 36.96 30.806 C 35.181 30.806 33.269 32.037 33.269 35.729 L 33.269 46.807 L 27.114 46.807 L 27.114 24.653 L 33.269 24.653 L 33.269 28.343 C 33.69 27.137 35.711 24.653 39.422 24.653 C 44.346 24.653 46.806 28.343 46.806 34.498 L 46.806 46.807 Z" style=""/>
</svg>